<?xml version="1.0" encoding="UTF-8" standalone="no"?>
<svg
   viewBox="0 0 60 60"
   version="1.1"
   id="svg26"
   sodipodi:docname="commission.svg"
   inkscape:version="1.2 (dc2aedaf03, 2022-05-15)"
   xmlns:inkscape="http://www.inkscape.org/namespaces/inkscape"
   xmlns:sodipodi="http://sodipodi.sourceforge.net/DTD/sodipodi-0.dtd"
   xmlns="http://www.w3.org/2000/svg"
   xmlns:svg="http://www.w3.org/2000/svg">
  <sodipodi:namedview
     id="namedview28"
     pagecolor="#ffffff"
     bordercolor="#000000"
     borderopacity="0.25"
     inkscape:showpageshadow="2"
     inkscape:pageopacity="0.0"
     inkscape:pagecheckerboard="0"
     inkscape:deskcolor="#d1d1d1"
     showgrid="false"
     inkscape:zoom="13.816667"
     inkscape:cx="30"
     inkscape:cy="30.036188"
     inkscape:window-width="1920"
     inkscape:window-height="1009"
     inkscape:window-x="1272"
     inkscape:window-y="-8"
     inkscape:window-maximized="1"
     inkscape:current-layer="svg26" />
  <defs
     id="defs4">
    <style
       id="style2">.a{fill:#1c4db8;}.b,.d{fill:none;stroke-linecap:round;stroke-linejoin:round;stroke-width:1.5px;}.b{stroke:#e82e5f;}.c{fill:#e82e5f;}.d{stroke:#1c4db8;}</style>
  </defs>
  <title
     id="title6" />
  <path
     class="a"
     d="M48.222,40.278a18.162,18.162,0,0,1-7.266,14.555,4.681,4.681,0,0,1-3.181-7.046c.752-1.2-.648-4.779.173-6.364s4.79-1.1,5.808-1.99c1.678-1.434-3.482-5.414-3.818-7.612s1.886-5.4,1.886-5.4A18.2,18.2,0,0,1,48.222,40.278Z"
     id="path8" />
  <polyline
     class="b"
     points="30.213 29.907 29.176 35.163 26.636 34.891 26.734 29.535"
     id="polyline10" />
  <path
     class="b"
     d="M28.2,29.832a8.784,8.784,0,0,1-6.469-4.219,2.193,2.193,0,0,1,.5-2.929,1.9,1.9,0,0,1,2.745.71,4.826,4.826,0,0,0,3.832,2.469c.027,0,.053,0,.079.006,2.276.244,4.474-.913,4.709-2.517.242-1.651-1.649-3.366-4.053-3.622a9.284,9.284,0,0,1-8.328-9.414A9.077,9.077,0,0,1,31.438,1.554c3.446.187,6.4,2.544,7.867,6.1a3.31,3.31,0,0,1-1.084,3.8,1.948,1.948,0,0,1-3.017-.839,5.048,5.048,0,0,0-4.261-3.156l-.09-.008c-2.659-.285-5.117,1.3-5.254,3.328-.133,1.966,1.951,3.875,4.456,4.143,4.939.528,8.286,4.631,7.516,8.849-.714,3.911-4.761,6.525-9.074,6.081C28.4,29.851,28.3,29.842,28.2,29.832Z"
     id="path12" />
  <path
     class="c"
     d="M39.374,7.847a3.322,3.322,0,0,1-1.153,3.613,1.948,1.948,0,0,1-3.017-.839,5.051,5.051,0,0,0-4.261-3.157l-.09-.007c-2.659-.285-5.117,1.3-5.254,3.328a2.889,2.889,0,0,0,.259,1.375l0,0a4.679,4.679,0,0,1,4.4-1.85l.09.007c2.813.154,2.891,2.569,4.5,3.5C36.258,14.638,41.749,14.475,39.374,7.847Z"
     id="path14" />
  <path
     class="c"
     d="M29.233,22.618A5.02,5.02,0,0,1,32.9,24.656h0a2.34,2.34,0,0,0,.7-1.3c.242-1.651-1.649-3.366-4.052-3.623a9.306,9.306,0,0,1-8.321-8.663h0a9.19,9.19,0,0,0,8.013,11.553Z"
     id="path16" />
  <polyline
     class="d"
     points="28.321 35.072 27.961 38.373 30.746 39.332"
     id="polyline18" />
  <path
     class="d"
     d="M36.028,35.316c.059-.006-3.676,1.086-3.676,1.086l-.177-1.7-3,.456-2.54-.272-2.261,1.338-1.168-2.253-1.857-.659"
     id="path20" />
  <path
     class="a"
     d="M23.035,57.112A18.209,18.209,0,0,1,11.778,40.278a17.847,17.847,0,0,1,.463-4.038c3.6.162,9.73,4.651,8.388,7.821-1.088,2.557,1.087,5.2,3.308,5.45S23.035,57.112,23.035,57.112Z"
     id="path22" />
  <path
     class="d"
     d="M39.841,24.944a18.221,18.221,0,1,1-21.428,1.278"
     id="path24" />
  <path
     style="fill:#ffffff;stroke-width:0.0723764"
     d="m 28.118215,59.126142 c -3.70155,-0.40953 -7.167981,-1.845284 -10.060314,-4.166858 -0.860246,-0.690489 -2.242604,-2.098856 -2.94357,-2.99895 -4.855597,-6.234968 -5.3704918,-14.718614 -1.303009,-21.468979 0.905835,-1.503317 2.176871,-3.053625 3.414251,-4.164427 0.873583,-0.784221 1.089386,-0.896191 1.44272,-0.748559 0.299143,0.12499 0.503001,0.475528 0.440922,0.758172 -0.02853,0.129903 -0.365823,0.503027 -0.979661,1.083736 -0.514882,0.487094 -1.201079,1.201658 -1.524883,1.587921 -1.507027,1.79772 -2.761381,4.139888 -3.399102,6.346908 -0.259872,0.899361 -0.268538,1.050202 -0.06033,1.050202 0.319176,0 1.713883,0.528291 2.590537,0.981252 1.152537,0.595508 2.085926,1.258376 2.990195,2.123559 1.160468,1.110307 1.771704,2.055241 1.982069,3.064161 0.117277,0.562461 0.07497,0.936267 -0.190568,1.683862 -0.797008,2.243881 0.869101,4.863818 3.359523,5.282813 0.962932,0.162006 1.066389,1.48535 0.322577,4.126114 -0.183519,0.651548 -0.679679,2.126607 -0.892262,2.652647 -0.03889,0.09624 0.06179,0.161747 0.517621,0.336805 1.95319,0.750102 3.916691,1.099812 6.175071,1.099812 2.797825,0 5.271813,-0.568386 7.708082,-1.770892 1.027185,-0.507004 2.352546,-1.296884 2.351964,-1.401708 -1.45e-4,-0.02648 -0.21999,-0.159971 -0.488541,-0.296644 -0.699055,-0.355769 -1.575703,-1.25024 -1.923715,-1.962825 -0.361825,-0.740871 -0.488763,-1.283887 -0.489755,-2.095072 -10e-4,-0.825556 0.123613,-1.340178 0.525804,-2.171291 0.390394,-0.806736 0.421064,-1.281346 0.205122,-3.174134 -0.283545,-2.485332 -0.157474,-3.429306 0.523913,-3.9229 0.541688,-0.392397 1.212647,-0.571054 3.522641,-0.937982 1.138651,-0.180867 1.637118,-0.350124 1.92931,-0.655108 0.192215,-0.200629 0.212376,-0.268232 0.212376,-0.712117 0,-0.816279 -0.15076,-1.061923 -2.70726,-4.411154 -1.293217,-1.694222 -1.544665,-2.320395 -1.383117,-3.444341 0.135216,-0.940748 0.63886,-2.276224 1.281416,-3.39784 l 0.202806,-0.354007 -0.350587,-0.29738 c -0.192822,-0.163559 -0.694863,-0.541849 -1.115646,-0.840644 -0.796718,-0.565746 -0.945614,-0.763031 -0.853343,-1.130666 0.0254,-0.101202 0.131044,-0.262651 0.234764,-0.358776 0.309695,-0.287016 0.57471,-0.235244 1.30263,0.254479 1.97634,1.329622 3.81869,3.211117 5.17845,5.288481 0.587548,0.897622 1.534257,2.784027 1.90186,3.789629 2.284565,6.249584 1.13263,13.208879 -3.050606,18.429912 -0.602708,0.752232 -1.969992,2.129026 -2.704093,2.722902 -2.74293,2.218988 -5.793461,3.564225 -9.33655,4.117274 -0.90446,0.141179 -3.652221,0.203016 -4.55971,0.102613 z"
     id="path203" />
  <path
     style="fill:#ffffff;stroke-width:0.0723764"
     d="m 29.131484,39.526483 c -0.776237,-0.269575 -1.480153,-0.527197 -1.56426,-0.572492 -0.307311,-0.165502 -0.34038,-0.415521 -0.214302,-1.620232 0.06386,-0.610166 0.133948,-1.226747 0.155759,-1.370181 l 0.03966,-0.260789 -0.375099,-0.04443 c -0.371331,-0.04398 -0.386155,-0.03791 -1.475873,0.604576 -1.142704,0.673723 -1.435395,0.766218 -1.726377,0.545561 -0.07168,-0.05436 -0.385327,-0.582577 -0.696981,-1.173814 l -0.566644,-1.074977 -0.85911,-0.309688 c -0.977281,-0.352287 -1.184804,-0.51887 -1.184804,-0.951064 0,-0.307096 0.238588,-0.610584 0.539357,-0.686072 0.177813,-0.04463 2.091552,0.586194 2.410325,0.794512 0.08976,0.05866 0.341166,0.461514 0.558689,0.895242 0.217523,0.433728 0.429718,0.809746 0.471545,0.835597 0.04183,0.02585 0.478319,-0.184872 0.969984,-0.468272 l 0.893935,-0.515272 1.113064,0.113401 c 0.612186,0.06237 1.194811,0.129944 1.294724,0.150161 0.09991,0.02022 0.810562,-0.06182 1.579221,-0.182304 0.76866,-0.120485 1.518327,-0.219063 1.665928,-0.219063 0.493185,0 0.684548,0.255937 0.771148,1.031363 0.02556,0.22889 0.05701,0.416164 0.06988,0.416164 0.01287,0 0.686342,-0.195322 1.496602,-0.434048 0.81026,-0.238726 1.515529,-0.434142 1.567264,-0.434258 0.186709,-4.2e-4 0.494762,0.210032 0.57942,0.395837 0.136024,0.29854 0.102656,0.524648 -0.112568,0.762791 -0.176214,0.19498 -0.428763,0.287624 -2.202718,0.808035 -1.854835,0.544138 -2.020583,0.580804 -2.23118,0.493573 -0.3174,-0.131472 -0.430021,-0.339271 -0.481261,-0.887988 -0.02435,-0.260709 -0.06797,-0.51238 -0.09695,-0.559267 -0.0397,-0.06424 -0.291469,-0.0475 -1.021495,0.06792 -0.532844,0.08425 -1.099085,0.164726 -1.258313,0.178843 l -0.289505,0.02567 -0.08361,0.714243 c -0.04598,0.392834 -0.0867,0.84996 -0.09047,1.015835 l -0.0069,0.301593 1.139194,0.379682 c 1.295146,0.431659 1.538731,0.596875 1.538731,1.043671 0,0.357971 -0.321545,0.689158 -0.663914,0.683823 -0.132434,-0.0021 -0.875893,-0.224314 -1.652129,-0.49389 z"
     id="path205" />
  <path
     style="fill:#ffffff;stroke-width:0.0723764"
     d="m 25.954451,32.200669 0.02866,-2.17327 -0.506634,-0.221241 c -1.272793,-0.555812 -2.554534,-1.511416 -3.419673,-2.549543 -1.269735,-1.523622 -1.609807,-2.519307 -1.25253,-3.667238 0.492399,-1.582081 2.101722,-2.350207 3.544152,-1.691615 0.516242,0.235709 0.862928,0.571765 1.35339,1.311891 0.833551,1.25786 1.890347,1.859926 3.431148,1.954754 1.180186,0.07263 2.590655,-0.33492 3.135946,-0.906131 l 0.206186,-0.215985 -0.423315,-0.336105 c -0.868165,-0.68931 -1.535583,-0.925905 -3.486879,-1.236076 -3.231963,-0.51374 -5.997079,-2.84596 -7.096241,-5.98528 -0.274044,-0.782698 -0.429143,-1.53914 -0.508494,-2.480005 -0.03357,-0.39807 -0.13666,-1.033172 -0.229083,-1.411339 -0.227555,-0.931084 -0.248956,-3.0285538 -0.04062,-3.9806995 0.88024,-4.0228239 4.047493,-7.0540429 8.061991,-7.71572738 0.862006,-0.14207894 2.916526,-0.10037736 3.833334,0.077807 2.999201,0.58290358 5.495579,2.59325598 7.03151,5.66252848 0.600381,1.1997491 0.750468,2.3119593 0.443943,3.2898124 -0.0791,0.25234 -0.144239,0.641629 -0.144752,0.865086 -0.0031,1.369438 -0.638128,2.438228 -1.760667,2.963528 -0.604583,0.282918 -1.18085,0.381325 -1.967649,0.336009 -1.225933,-0.07061 -1.6307,-0.345537 -2.790068,-1.895084 -0.674951,-0.902102 -1.096232,-1.309247 -1.64012,-1.585085 -0.686934,-0.348387 -2.391484,-0.47293 -3.277894,-0.239502 -0.629355,0.165736 -1.42769,0.563736 -1.808317,0.901512 l -0.310318,0.275384 0.208895,0.427416 c 0.247263,0.505921 0.921536,1.202821 1.494775,1.544937 0.572996,0.341971 1.285527,0.571432 2.19313,0.706268 1.998291,0.296874 3.495282,0.912167 4.919731,2.022107 1.347288,1.049814 2.287863,2.368879 2.81176,3.943221 1.211547,3.64077 -0.46544,7.474488 -4.08143,9.330448 -0.849524,0.436032 -1.576581,0.695773 -2.424608,0.866193 l -0.651387,0.130904 -0.370489,1.823122 c -0.20377,1.002717 -0.383839,1.836472 -0.400156,1.852788 -0.07311,0.07311 -1.007874,0.177632 -1.216124,0.135982 -0.189796,-0.03796 -0.224735,-0.07369 -0.194609,-0.199003 0.02019,-0.08401 0.169464,-0.836695 0.331708,-1.672642 0.162244,-0.835947 0.310071,-1.587187 0.328505,-1.669421 0.03175,-0.141626 -0.0145,-0.154043 -0.8761,-0.235244 -0.500289,-0.04715 -0.93909,-0.06751 -0.975114,-0.04525 -0.03626,0.02241 -0.0655,0.85005 -0.0655,1.854048 v 1.813569 l -0.452352,-0.04737 c -0.373229,-0.03909 -0.501674,-0.022 -0.734331,0.09772 L 25.92579,34.37394 Z m 4.954168,-3.144268 c 1.165189,-0.203192 2.401664,-0.713332 3.329881,-1.373829 0.992176,-0.706008 1.984093,-1.987598 2.356235,-3.044334 0.660075,-1.874345 0.392859,-3.91141 -0.733609,-5.592534 -1.243924,-1.856413 -3.085074,-2.953916 -5.680185,-3.385939 -1.951456,-0.324871 -2.83465,-0.730788 -3.915763,-1.799693 -0.780285,-0.771472 -1.185956,-1.489216 -1.332387,-2.35735 -0.279679,-1.6581297 0.715358,-3.2680064 2.570225,-4.1583816 0.905372,-0.4345981 1.370095,-0.5462438 2.460796,-0.5911857 1.925792,-0.079352 3.391013,0.4518144 4.584646,1.6620081 0.573085,0.5810353 0.764219,0.8513754 1.205462,1.7050052 0.320829,0.620676 0.398517,0.718571 0.684818,0.862944 0.177614,0.08957 0.438169,0.162132 0.57901,0.161258 1.049866,-0.0065 1.976116,-1.4572043 1.743474,-2.7306185 C 38.719406,8.1848613 38.536146,7.6881785 38.353977,7.3100121 37.097003,4.7006451 34.829823,2.8273131 32.401483,2.3915667 32.17536,2.3509906 31.589874,2.2833599 31.100403,2.2412761 26.734189,1.8658775 22.891937,4.7470948 22.071806,9.011615 c -0.145462,0.7563749 -0.142758,2.284259 0.0054,3.065419 0.337364,1.778442 1.234317,3.411619 2.556504,4.654899 1.3443,1.264073 2.868089,1.977703 4.837122,2.265352 0.880483,0.128626 1.38304,0.259036 2.004439,0.520135 1.853332,0.778734 3.108676,2.562259 2.809016,3.990898 -0.301389,1.436882 -1.579713,2.537364 -3.435988,2.95797 -0.698521,0.158276 -2.159719,0.15604 -2.829723,-0.0043 -1.500293,-0.359102 -2.655945,-1.185279 -3.543885,-2.533527 -0.467562,-0.709946 -0.729835,-0.8767 -1.293673,-0.822522 -0.440647,0.04234 -0.695546,0.220759 -0.90722,0.635013 -0.226991,0.444231 -0.218301,0.957375 0.024,1.417175 0.617746,1.172268 2.013618,2.498692 3.323408,3.158061 0.701468,0.35313 1.840924,0.703843 2.605549,0.801962 0.582963,0.07481 2.099014,0.03992 2.68184,-0.06172 z"
     id="path207" />
</svg>
