<?xml version="1.0" encoding="UTF-8" standalone="no"?>
<!-- Generator: Adobe Illustrator 19.0.0, SVG Export Plug-In . SVG Version: 6.00 Build 0)  -->

<svg
   version="1.1"
   id="Layer_1"
   x="0px"
   y="0px"
   viewBox="0 0 329.991 329.991"
   style="enable-background:new 0 0 329.991 329.991;"
   xml:space="preserve"
   sodipodi:docname="dollar.svg"
   inkscape:version="1.2 (dc2aedaf03, 2022-05-15)"
   xmlns:inkscape="http://www.inkscape.org/namespaces/inkscape"
   xmlns:sodipodi="http://sodipodi.sourceforge.net/DTD/sodipodi-0.dtd"
   xmlns="http://www.w3.org/2000/svg"
   xmlns:svg="http://www.w3.org/2000/svg"><defs
   id="defs72" /><sodipodi:namedview
   id="namedview70"
   pagecolor="#ffffff"
   bordercolor="#000000"
   borderopacity="0.25"
   inkscape:showpageshadow="2"
   inkscape:pageopacity="0.0"
   inkscape:pagecheckerboard="0"
   inkscape:deskcolor="#d1d1d1"
   showgrid="false"
   inkscape:zoom="2.5121897"
   inkscape:cx="86.577857"
   inkscape:cy="165.19453"
   inkscape:window-width="1920"
   inkscape:window-height="1009"
   inkscape:window-x="1272"
   inkscape:window-y="-8"
   inkscape:window-maximized="1"
   inkscape:current-layer="Layer_1" />
<path
   id="XMLID_462_"
   d="M179.996,151.501V62.571c17.458,6.192,30,22.865,30,42.42c0,8.284,6.716,15,15,15c8.284,0,15-6.716,15-15  c0-36.219-25.808-66.523-60-73.491V15c0-8.284-6.716-15-15-15c-8.284,0-15,6.716-15,15v16.5c-34.192,6.968-60,37.272-60,73.491  s25.808,66.522,60,73.491v88.929c-17.459-6.192-30-22.865-30-42.42c0-8.284-6.716-15-15-15s-15,6.716-15,15  c0,36.219,25.808,66.523,60,73.491v16.509c0,8.284,6.716,15,15,15c8.284,0,15-6.716,15-15v-16.509c34.192-6.968,60-37.272,60-73.491  S214.187,158.469,179.996,151.501z M119.996,104.991c0-19.555,12.541-36.228,30-42.42v84.84  C132.537,141.219,119.996,124.546,119.996,104.991z M179.996,267.411v-84.84c17.458,6.192,30,22.865,30,42.42  S197.454,261.219,179.996,267.411z" />
<g
   id="g39">
</g>
<g
   id="g41">
</g>
<g
   id="g43">
</g>
<g
   id="g45">
</g>
<g
   id="g47">
</g>
<g
   id="g49">
</g>
<g
   id="g51">
</g>
<g
   id="g53">
</g>
<g
   id="g55">
</g>
<g
   id="g57">
</g>
<g
   id="g59">
</g>
<g
   id="g61">
</g>
<g
   id="g63">
</g>
<g
   id="g65">
</g>
<g
   id="g67">
</g>
<path
   style="fill:#ff0000;stroke-width:0.398059"
   d="m 160.55482,329.0609 c -4.13699,-1.54238 -7.24801,-4.35673 -9.03953,-8.17749 -1.03489,-2.20711 -1.0506,-2.37348 -1.17236,-12.41109 l -0.12341,-10.17399 -3.5759,-0.87211 c -13.41874,-3.2726 -26.76572,-11.25591 -36.54277,-21.85753 -12.46108,-13.51202 -19.602612,-31.14947 -19.708856,-48.675 -0.03051,-5.03245 0.03519,-5.51838 1.034243,-7.64993 4.110293,-8.76956 14.757063,-11.66946 22.319793,-6.07932 3.8955,2.87944 5.63885,6.55238 6.04421,12.7341 0.66179,10.09221 3.02317,17.45693 7.90326,24.64892 2.11207,3.11264 6.96552,8.15906 10.21365,10.61972 2.60059,1.97013 10.7241,6.32854 11.79554,6.32854 0.48409,0 0.56462,-6.35627 0.56462,-44.56728 v -44.56727 l -1.49272,-0.38931 c -0.821,-0.21411 -2.60443,-0.67171 -3.96318,-1.01687 -12.2358,-3.10829 -26.22612,-11.8426 -35.41504,-22.11 C 94.164994,137.82596 87.481324,114.70014 91.328618,92.329718 94.814785,72.059099 106.46136,54.352236 124.12775,42.463584 c 6.19989,-4.172238 18.48532,-9.403971 24.42358,-10.400742 l 1.66751,-0.279902 0.12375,-10.229313 0.12375,-10.229312 1.30586,-2.6507687 c 1.46732,-2.9785127 4.13239,-5.638842 7.14094,-7.1282347 1.63433,-0.80908023 2.49234,-0.94239986 6.08236,-0.94509046 3.9203,-0.002938 4.3287,0.0748284 6.58255,1.25341396 2.91824,1.5260125 5.46758,4.2028242 6.88761,7.2320058 1.04784,2.2352441 1.0603,2.3667061 1.18274,12.4781711 l 0.12375,10.219128 1.66752,0.279902 c 6.15236,1.032711 18.25886,6.244641 24.95398,10.742862 20.34003,13.665763 33.06287,36.769002 33.20535,60.297166 0.032,5.29092 0.0114,5.42249 -1.25764,8.00298 -4.90698,9.97818 -18.05308,11.60321 -24.80152,3.06579 -2.1786,-2.75614 -3.04446,-5.41322 -3.3535,-10.29095 -0.62415,-9.851427 -3.01927,-17.26072 -7.90923,-24.467186 -2.34168,-3.450982 -7.81032,-8.970179 -11.23125,-11.33506 -3.13021,-2.163913 -8.39949,-4.94508 -10.22751,-5.398159 l -1.09466,-0.271313 v 44.618188 44.61819 l 1.09466,0.24109 c 5.95754,1.31208 11.88885,3.46388 17.908,6.49678 27.28161,13.74653 43.74716,43.59022 40.68571,73.74258 -2.90688,28.63014 -21.64822,52.90612 -48.62497,62.98478 -2.1251,0.79395 -5.47297,1.83599 -7.43971,2.31564 l -3.5759,0.87211 -0.12341,10.17399 c -0.12206,10.06282 -0.13499,10.19868 -1.18241,12.43304 -1.42028,3.02971 -3.78776,5.50826 -6.80184,7.12093 -2.20508,1.17981 -2.89699,1.34556 -6.07123,1.45436 -2.33208,0.0799 -4.09047,-0.0666 -5.03777,-0.41975 z m 23.92669,-63.36839 c 5.18925,-2.52566 8.97722,-5.26035 12.84743,-9.27508 7.63862,-7.92386 11.79438,-17.00468 12.61188,-27.55844 1.22456,-15.80886 -5.3779,-30.64722 -17.77761,-39.95335 -3.05765,-2.29481 -9.16766,-5.67219 -11.54389,-6.38104 l -0.89563,-0.26718 v 42.61915 c 0,35.07733 0.0932,42.61915 0.52646,42.61915 0.28956,0 2.19367,-0.81145 4.23136,-1.80321 z M 150.26731,105.04445 V 62.408972 l -1.09466,0.271313 c -1.82802,0.453079 -7.09731,3.234246 -10.22752,5.398159 -3.42149,2.365276 -8.8903,7.884855 -11.23078,11.33506 -4.51832,6.660627 -7.0531,13.870835 -7.671,21.820156 -1.52879,19.66833 8.95906,37.14161 27.21435,45.34046 1.32689,0.59593 2.54687,1.08853 2.71107,1.09466 0.1642,0.006 0.29854,-19.17482 0.29854,-42.62433 z"
   id="path525" /><path
   style="fill:#ffffff;stroke-width:0.398059"
   d="m 159.02462,328.1463 c -2.75609,-1.38873 -5.91921,-4.52372 -7.17547,-7.11163 -0.91908,-1.89333 -0.97956,-2.49128 -1.2414,-12.27406 -0.15138,-5.65608 -0.34335,-10.35187 -0.42658,-10.43511 -0.0832,-0.0832 -2.33757,-0.7806 -5.00964,-1.5497 -8.25371,-2.37566 -14.19942,-5.12612 -21.20952,-9.81143 -16.57998,-11.08146 -28.09664,-28.01594 -31.960507,-46.99578 -1.753072,-8.61132 -1.889387,-17.53637 -0.316613,-20.72983 1.473593,-2.99207 4.171909,-5.69407 7.15086,-7.1606 2.40489,-1.18392 2.98868,-1.30586 6.25186,-1.30586 3.26455,0 3.84641,0.12167 6.25684,1.30832 2.92471,1.43983 5.30736,3.82146 6.62283,6.61999 0.86259,1.8351 1.32408,4.2872 2.03999,10.83951 0.85058,7.78482 3.32067,14.74552 7.42176,20.91445 2.30813,3.47192 8.40654,9.62523 11.62083,11.72545 4.09588,2.67624 9.79475,5.48857 10.5414,5.20206 0.63045,-0.24193 0.67605,-3.26077 0.67605,-44.75695 v -44.49751 l -4.32738,-1.12332 C 126.42555,171.93871 108.84515,157.92342 99.165451,139.71519 90.225426,122.89832 88.163052,102.56154 93.517469,84.021207 98.193605,67.829507 109.33513,52.748735 123.8647,42.944285 c 5.78733,-3.905253 17.95412,-9.254741 23.81523,-10.471071 l 2.38836,-0.495645 0.2491,-2.753319 c 0.137,-1.514325 0.27135,-6.117051 0.29854,-10.228279 l 0.0494,-7.474959 1.21677,-2.410407 c 1.64988,-3.268383 3.95928,-5.6657212 6.84889,-7.1096773 2.18535,-1.09202894 2.77175,-1.20480948 6.26447,-1.20480948 3.50131,0 4.07601,0.11122134 6.28911,1.21712048 2.75839,1.3783842 5.50925,4.1870212 6.90528,7.0503113 0.85899,1.761802 0.93575,2.54211 1.19203,12.116217 0.15066,5.628228 0.38932,10.419865 0.53037,10.648081 0.14104,0.228217 0.73847,0.417578 1.32761,0.420802 3.92665,0.02149 20.49378,7.4655 26.94502,12.107045 11.64482,8.378249 20.92551,20.300728 26.2046,33.663891 3.16356,8.008022 4.56514,14.769736 4.9208,23.739534 l 0.23892,6.02591 -1.21849,2.60386 c -1.63428,3.49236 -3.98596,5.95375 -7.20027,7.53615 -2.37602,1.16971 -2.97187,1.29366 -6.21871,1.29366 -3.04808,0 -3.92908,-0.15856 -5.828,-1.04895 -4.69403,-2.20098 -7.58805,-6.22327 -8.30414,-11.5416 -0.21725,-1.61356 -0.6653,-4.99371 -0.99566,-7.511431 -0.99343,-7.571164 -3.15248,-13.407013 -7.25851,-19.619486 -2.29375,-3.470486 -8.4691,-9.645832 -11.93959,-11.939588 -2.93158,-1.937577 -8.01513,-4.586871 -9.76752,-5.090344 l -1.09466,-0.314507 v 44.952896 c 0,43.64545 0.0216,44.95289 0.74435,44.95289 1.47398,0 8.96658,2.45557 13.7152,4.49492 22.7646,9.77653 39.11817,30.10424 44.13121,54.85571 0.80542,3.9767 0.91737,5.67003 0.90525,13.69322 -0.0127,8.38712 -0.10316,9.57359 -1.07854,14.1396 -6.0126,28.14679 -25.91661,49.64576 -53.24504,57.51171 -2.71423,0.78124 -5.00305,1.48853 -5.08629,1.57176 -0.0832,0.0832 -0.2752,4.77903 -0.42658,10.43511 -0.25638,9.57887 -0.33728,10.41098 -1.1802,12.13966 -1.27791,2.62074 -3.58145,5.07987 -6.2749,6.69873 -2.19235,1.31767 -2.52928,1.3963 -6.51308,1.52 -3.93305,0.12213 -4.34083,0.0601 -6.39045,-0.9727 z m 25.38587,-62.22296 c 11.7556,-5.68487 20.64662,-16.14212 24.15397,-28.40886 1.45277,-5.08101 2.01957,-11.71679 1.44041,-16.86373 -1.90199,-16.90281 -10.79792,-29.39337 -26.30059,-36.92798 l -3.78156,-1.83791 -0.10254,42.30786 c -0.0564,23.26932 -0.0172,42.53176 0.087,42.80543 0.29778,0.78163 1.02171,0.60885 4.50329,-1.07481 z M 150.26731,104.91636 V 62.152794 l -1.09466,0.314507 c -1.72526,0.495679 -6.7807,3.138999 -9.77032,5.108567 -3.48888,2.298489 -9.62274,8.42483 -11.96945,11.954782 -10.59572,15.938243 -10.20408,37.2594 0.95874,52.19395 2.50335,3.34919 6.99104,7.78621 10.31534,10.19886 2.57214,1.86676 9.86862,5.72404 10.86375,5.74312 0.6592,0.0126 0.6966,-2.2833 0.6966,-42.75022 z"
   id="path310" /></svg>
