<?xml version="1.0" encoding="UTF-8" standalone="no"?>
<svg
   viewBox="0 0 22.84 22.799"
   version="1.1"
   id="svg5"
   sodipodi:docname="getProductFromOzon.svg"
   inkscape:version="1.2 (dc2aedaf03, 2022-05-15)"
   xmlns:inkscape="http://www.inkscape.org/namespaces/inkscape"
   xmlns:sodipodi="http://sodipodi.sourceforge.net/DTD/sodipodi-0.dtd"
   xmlns="http://www.w3.org/2000/svg"
   xmlns:svg="http://www.w3.org/2000/svg">
  <defs
     id="defs9" />
  <sodipodi:namedview
     id="namedview7"
     pagecolor="#ffffff"
     bordercolor="#000000"
     borderopacity="0.25"
     inkscape:showpageshadow="2"
     inkscape:pageopacity="0.0"
     inkscape:pagecheckerboard="0"
     inkscape:deskcolor="#d1d1d1"
     showgrid="false"
     inkscape:zoom="36.361244"
     inkscape:cx="11.427002"
     inkscape:cy="11.413251"
     inkscape:window-width="1920"
     inkscape:window-height="1009"
     inkscape:window-x="1272"
     inkscape:window-y="-8"
     inkscape:window-maximized="1"
     inkscape:current-layer="svg5" />
  <g
     data-name="Layer 2"
     id="Layer_2">
    <g
       data-name="Layer 1"
       id="Layer_1-2">
      <path
         d="M17.878,19.17a.346.346,0,0,0-.346.346v1.553a1.04,1.04,0,0,1-1.038,1.038H1.73A1.04,1.04,0,0,1,.692,21.069V19.862H12.4a.346.346,0,1,0,0-.692H.692V5.729H4.21V7.683a.346.346,0,0,0,.692,0V5.729h8.536V7.683a.346.346,0,0,0,.692,0V5.729h3.4v4.724a.346.346,0,0,0,.692,0V5.383a.346.346,0,0,0-.346-.346H14.13a4.961,4.961,0,1,0-9.92,0H.346A.346.346,0,0,0,0,5.383V21.069A1.732,1.732,0,0,0,1.73,22.8H16.494a1.732,1.732,0,0,0,1.73-1.73V19.516A.346.346,0,0,0,17.878,19.17ZM4.9,4.921a4.268,4.268,0,1,1,8.536.116H4.9ZM6.287,8.144a1.731,1.731,0,1,1-3.461,0,.346.346,0,0,1,.692,0,1.038,1.038,0,0,0,2.076,0A.347.347,0,0,1,6.287,8.144Zm9.228,0a1.73,1.73,0,1,1-3.46,0,.346.346,0,0,1,.692,0,1.038,1.038,0,0,0,2.076,0A.346.346,0,0,1,15.515,8.144Zm7.111.119a.349.349,0,0,0-.377.075l-7.073,7.075L11.665,11.9a.345.345,0,0,0-.59.245v3.614a.346.346,0,0,0,.1.245l3.756,3.757a.348.348,0,0,0,.489,0l7.317-7.319a.347.347,0,0,0,.1-.245V8.583A.348.348,0,0,0,22.626,8.263Zm-.479,3.791-6.971,6.973-3.409-3.411V12.981l3.165,3.166a.346.346,0,0,0,.489,0l6.726-6.728Z"
         data-name="recycled goods"
         id="recycled_goods" />
    </g>
  </g>
  <path
     style="fill:#ffffff;stroke-width:0.0275018"
     d="M 1.5125995,22.770234 C 0.87205646,22.685646 0.32659837,22.233248 0.10486633,21.602671 L 0.02750181,21.382657 0.02039624,13.35677 C 0.01258241,4.5308835 -3.0736847e-4,5.2117391 0.176574,5.1072526 0.2494635,5.0641956 0.41924536,5.0603326 2.2387653,5.0603326 H 4.2215277 V 4.8804873 c 0,-0.098915 0.013203,-0.3000222 0.029341,-0.4469044 C 4.4649644,2.4848764 5.7719279,0.86090368 7.6180011,0.24973785 8.2221922,0.04971282 8.4417636,0.01598483 9.1443515,0.01527784 9.62288,0.01479631 9.820717,0.02563835 10.017143,0.06310934 11.63118,0.37100983 12.94189,1.3702527 13.627296,2.8153723 c 0.282587,0.5958099 0.421837,1.1284168 0.473696,1.8118071 l 0.03287,0.4331535 h 1.930926 1.930926 l 0.08381,0.070522 c 0.0461,0.038787 0.09648,0.116136 0.111964,0.1718863 0.04272,0.1538201 0.03565,5.1318108 -0.0075,5.2570008 -0.03983,0.115651 -0.186555,0.220967 -0.307843,0.220967 -0.121288,0 -0.26801,-0.105316 -0.307843,-0.220967 -0.02439,-0.07082 -0.03322,-0.7046288 -0.03438,-2.467335 l -0.0016,-2.372031 H 15.82721 14.122098 v 1.0051818 c 0,1.0905669 -0.0011,1.0994552 -0.154419,1.2200363 -0.04928,0.038766 -0.112926,0.057432 -0.195813,0.057432 -0.102985,0 -0.137887,-0.015088 -0.216305,-0.093506 l -0.09351,-0.093506 V 6.7681952 5.7203763 H 9.1718534 4.8815711 V 6.739309 c 0,1.1010874 -0.00262,1.1225444 -0.1488865,1.2183807 -0.089457,0.058615 -0.2476442,0.057896 -0.3483338,-0.00158 C 4.2257371,7.8624111 4.2215277,7.8306336 4.2215277,6.7269114 V 5.7203763 H 2.447661 0.67379432 V 12.45832 19.196263 H 6.6031844 12.532574 l 0.09351,0.09351 c 0.07842,0.07842 0.09351,0.11332 0.09351,0.216306 0,0.145405 -0.07403,0.255499 -0.209998,0.312311 -0.07616,0.03182 -1.035162,0.03792 -5.9652997,0.03792 H 0.66974523 l 0.009754,0.721923 c 0.009143,0.676761 0.013717,0.731874 0.0731109,0.881009 0.0886673,0.222638 0.31185477,0.456924 0.53221917,0.558685 l 0.1727671,0.07978 h 7.6598327 7.6598319 l 0.181554,-0.08938 c 0.215242,-0.105964 0.384234,-0.278575 0.486671,-0.497093 l 0.07317,-0.156077 0.01375,-0.962564 c 0.0099,-0.695026 0.02326,-0.979169 0.04796,-1.022309 0.150181,-0.262336 0.527541,-0.219543 0.614185,0.06965 0.02083,0.06951 0.027,0.391497 0.01933,1.008665 -0.01111,0.894398 -0.01225,0.909539 -0.0848,1.12873 -0.128079,0.386934 -0.359811,0.692826 -0.694378,0.916599 -0.23054,0.154194 -0.460607,0.238512 -0.754842,0.276645 -0.250217,0.03243 -14.9216022,0.0321 -15.167247,-3.36e-4 z M 13.444636,4.833443 C 13.365958,3.3819632 12.693598,2.1792031 11.531846,1.4117247 10.234808,0.55487348 8.6026344,0.46488514 7.2130994,1.1736147 6.8014042,1.383599 6.4834132,1.6158758 6.1466164,1.9526284 5.3850907,2.714054 4.9631077,3.6640704 4.8914338,4.7784393 L 4.873303,5.0603329 h 4.2918157 4.2918153 z"
     id="path253" />
  <path
     style="fill:#ffffff;stroke-width:0.0275018"
     d="m 15.04349,19.813671 c -0.108822,-0.05579 -3.881225,-3.826408 -3.918677,-3.916826 -0.01956,-0.04723 -0.02653,-0.691445 -0.02151,-1.987351 l 0.0074,-1.917475 0.06956,-0.06955 c 0.03826,-0.03825 0.106324,-0.07981 0.15126,-0.09236 0.195598,-0.05461 0.170232,-0.07691 2.061795,1.812682 l 1.78758,1.785715 3.561522,-3.558638 c 1.958837,-1.9572512 3.588553,-3.5722939 3.621592,-3.5889839 0.136286,-0.068846 0.332736,-0.00207 0.411507,0.1398841 0.02771,0.04993 0.03546,0.4757389 0.03623,1.9884228 l 9.75e-4,1.924887 -3.71962,3.722605 c -2.187321,2.189076 -3.756076,3.738468 -3.808117,3.761112 -0.111567,0.04855 -0.139716,0.04806 -0.241524,-0.0041 z m 3.638162,-4.256653 3.471055,-3.474233 V 10.737368 9.3919513 l -3.389598,3.3867117 c -1.864279,1.862692 -3.41663,3.400368 -3.449669,3.417058 -0.03304,0.01669 -0.10705,0.03035 -0.164469,0.03035 -0.10134,0 -0.151965,-0.04754 -1.727857,-1.622606 -0.892902,-0.892434 -1.6326,-1.622607 -1.643774,-1.622607 -0.01117,0 -0.02032,0.597096 -0.02032,1.32688 v 1.326879 l 1.698154,1.69832 c 0.933984,0.934075 1.711038,1.698319 1.726786,1.698319 0.01575,0 1.590609,-1.563405 3.499689,-3.474234 z"
     id="path255" />
  <path
     style="fill:#ffffff;stroke-width:0.0275018"
     d="M 13.576441,9.8432371 C 12.939671,9.7617641 12.380669,9.3116005 12.169227,8.7100104 12.09002,8.4846529 12.052608,8.1859197 12.087407,8.0566846 c 0.05281,-0.1961071 0.265765,-0.2921218 0.451956,-0.2037687 0.128064,0.06077 0.175141,0.1543804 0.208008,0.4136062 0.04742,0.3740389 0.264256,0.6748021 0.599941,0.8321652 0.138057,0.064719 0.189416,0.073146 0.444845,0.072991 0.260568,-1.595e-4 0.304181,-0.00772 0.446575,-0.077471 0.322487,-0.1579597 0.552754,-0.4884849 0.588384,-0.8445674 0.0098,-0.097822 0.03523,-0.2124394 0.05654,-0.2547048 0.04689,-0.093 0.188564,-0.1841777 0.286399,-0.1843182 0.08982,-1.29e-4 0.246721,0.1036937 0.29203,0.1932353 0.08563,0.1692223 -0.0016,0.6459905 -0.175539,0.9589545 C 15.14823,9.2117432 14.821344,9.5319512 14.575959,9.6588783 14.26135,9.8216119 13.911608,9.886121 13.576441,9.8432371 Z"
     id="path257" />
  <path
     style="fill:#ffffff;stroke-width:0.0275018"
     d="M 4.1449497,9.8451348 C 3.4096413,9.6524846 2.8928345,9.0303829 2.8529083,8.2898512 2.8394623,8.0404617 2.8394836,8.040362 2.9275541,7.9400552 3.1448162,7.6926074 3.50608,7.8483139 3.5063779,8.1895312 c 1.43e-4,0.1653512 0.097361,0.4350517 0.2141876,0.5942007 0.1194135,0.1626737 0.3673788,0.3291292 0.5586519,0.3750149 0.2122018,0.050906 0.5312845,0.023334 0.7177222,-0.06202 C 5.3290374,8.944687 5.5502501,8.6343208 5.5980936,8.2532947 5.6261782,8.0296266 5.6493914,7.9754023 5.7514132,7.8951521 5.9229846,7.760194 6.1967252,7.862945 6.2564429,8.0847195 6.2858218,8.1938248 6.2604233,8.4572602 6.1993566,8.6768208 6.0891549,9.0730424 5.6959959,9.5371502 5.3165003,9.7189954 4.9355749,9.9015257 4.5277704,9.9454335 4.1449497,9.8451348 Z"
     id="path259" />
</svg>
