<?xml version="1.0" encoding="UTF-8" standalone="no"?>
<svg
   viewBox="0 0 24 24"
   version="1.1"
   id="svg5"
   sodipodi:docname="info.svg"
   inkscape:version="1.2 (dc2aedaf03, 2022-05-15)"
   xmlns:inkscape="http://www.inkscape.org/namespaces/inkscape"
   xmlns:sodipodi="http://sodipodi.sourceforge.net/DTD/sodipodi-0.dtd"
   xmlns="http://www.w3.org/2000/svg"
   xmlns:svg="http://www.w3.org/2000/svg">
  <defs
     id="defs9" />
  <sodipodi:namedview
     id="namedview7"
     pagecolor="#ffffff"
     bordercolor="#000000"
     borderopacity="0.25"
     inkscape:showpageshadow="2"
     inkscape:pageopacity="0.0"
     inkscape:pagecheckerboard="0"
     inkscape:deskcolor="#d1d1d1"
     showgrid="false"
     inkscape:zoom="34.541667"
     inkscape:cx="12.028951"
     inkscape:cy="12.014475"
     inkscape:window-width="1920"
     inkscape:window-height="1009"
     inkscape:window-x="1272"
     inkscape:window-y="-8"
     inkscape:window-maximized="1"
     inkscape:current-layer="svg5" />
  <g
     data-name="22. Information"
     id="_22._Information">
    <path
       d="M12,0A12,12,0,1,0,24,12,12.01,12.01,0,0,0,12,0Zm1,18a1,1,0,0,1-2,0V11H10a1,1,0,0,1,0-2h2a1,1,0,0,1,1,1ZM12.02,7a1,1,0,0,1-.01-2h.01a1,1,0,0,1,0,2Z"
       id="path2" />
  </g>
  <path
     style="fill:#ffffff;stroke-width:0.0289505"
     d="M 11.44994,23.967646 C 9.7694527,23.896298 8.1238906,23.460682 6.5862485,22.680121 5.3942108,22.075001 4.4931816,21.419004 3.5306238,20.455464 2.3972193,19.320902 1.5938751,18.134405 0.96729076,16.669555 0.51317541,15.607908 0.19746247,14.370535 0.06763771,13.143546 c -0.0498603,-0.471235 -0.0498603,-1.815857 0,-2.287092 C 0.31910299,8.4798259 1.1974803,6.3276657 2.667114,4.4873341 3.2768025,3.7238588 4.2628099,2.8005211 5.1086681,2.2009627 6.2225153,1.4114492 7.6383506,0.75338287 8.9626002,0.40969288 10.01017,0.13781114 10.888383,0.02642264 11.985525,0.02627915 c 0.886882,-1.161e-4 1.565541,0.06417223 2.340688,0.22172949 2.119098,0.43073012 3.992344,1.36333676 5.636947,2.80638796 1.739592,1.5263997 3.056954,3.6922197 3.645031,5.992648 0.263466,1.0306184 0.359161,1.8097634 0.360907,2.9384804 0.0013,0.863561 -0.02082,1.159972 -0.145009,1.939686 -0.484176,3.039963 -2.168596,5.809591 -4.672643,7.683048 -1.846958,1.381842 -4.28293,2.268279 -6.456633,2.349533 -0.214958,0.008 -0.468999,0.01838 -0.564536,0.02299 -0.09554,0.0046 -0.401688,-0.0013 -0.680337,-0.01313 z m 1.002916,-5.063891 c 0.209354,-0.101793 0.363977,-0.26237 0.469648,-0.487735 l 0.07629,-0.162703 0.0076,-4.196335 C 13.014806,9.4374256 13.024936,9.7123426 12.835801,9.4268008 12.729672,9.2665743 12.537095,9.1150254 12.347407,9.0424577 12.234745,8.9993579 12.071227,8.9911107 11.138149,8.9814682 10.4885,8.9747548 9.9837148,8.9820646 9.8695394,8.9998408 9.5059736,9.0564426 9.2514847,9.2371527 9.098924,9.547048 9.012444,9.7227141 9.003632,9.764823 9.003765,10.001804 c 1.158e-4,0.209861 0.013022,0.289145 0.065692,0.40361 0.099899,0.217102 0.2433603,0.372249 0.4456067,0.481901 l 0.1833678,0.09942 0.6437115,0.0092 0.643711,0.0092 0.0077,3.62469 0.0077,3.624691 0.0953,0.19358 c 0.249978,0.507745 0.840891,0.706241 1.356345,0.455616 z M 12.469646,6.9099051 C 12.888951,6.7047581 13.116018,6.2124281 13.000784,5.7582806 12.81199,5.0142294 11.905258,4.7374998 11.341467,5.2518667 11.156159,5.4209304 11.051956,5.6128473 11.02184,5.8405448 c -0.06915,0.5227909 0.184372,0.9403506 0.684143,1.1268222 0.06818,0.025439 0.194231,0.036254 0.354258,0.030395 0.19952,-0.0073 0.28011,-0.024599 0.409405,-0.087857 z"
     id="path80" />
</svg>
