<?xml version="1.0" encoding="UTF-8" standalone="no"?>
<!-- Generator: Adobe Illustrator 25.0.1, SVG Export Plug-In . SVG Version: 6.00 Build 0)  -->

<svg
   version="1.1"
   id="Yandex_Logo"
   x="0px"
   y="0px"
   viewBox="0 0 1080 1080"
   style="enable-background:new 0 0 1080 1080;"
   xml:space="preserve"
   sodipodi:docname="Yandex_znak.svg"
   inkscape:version="1.2 (dc2aedaf03, 2022-05-15)"
   xmlns:inkscape="http://www.inkscape.org/namespaces/inkscape"
   xmlns:sodipodi="http://sodipodi.sourceforge.net/DTD/sodipodi-0.dtd"
   xmlns="http://www.w3.org/2000/svg"
   xmlns:svg="http://www.w3.org/2000/svg"><defs
   id="defs10" /><sodipodi:namedview
   id="namedview8"
   pagecolor="#ffffff"
   bordercolor="#000000"
   borderopacity="0.25"
   inkscape:showpageshadow="2"
   inkscape:pageopacity="0.0"
   inkscape:pagecheckerboard="0"
   inkscape:deskcolor="#d1d1d1"
   showgrid="false"
   inkscape:zoom="0.76759259"
   inkscape:cx="540"
   inkscape:cy="540.65139"
   inkscape:window-width="1920"
   inkscape:window-height="1009"
   inkscape:window-x="1272"
   inkscape:window-y="-8"
   inkscape:window-maximized="1"
   inkscape:current-layer="Yandex_Logo" />
<style
   type="text/css"
   id="style2">
	.st0{fill:#FC3F1D;}
	.st1{fill:#FFFFFF;}
</style>
<circle
   class="st0"
   cx="540"
   cy="540"
   r="538.9"
   id="circle4" />
<path
   id="Glyph"
   class="st1"
   d="M735,878.3H616.7V293.2H564c-96.6,0-147.2,48.3-147.2,120.4c0,81.8,34.9,119.7,107.1,168l59.5,40.1  l-171,256.5H285.2l153.9-229c-88.5-63.2-138.3-124.9-138.3-229c0-130.1,90.7-218.6,262.4-218.6h171v676.5H735z" />
<path
   style="fill:#ffffff;stroke-width:1.30277"
   d="M 508.22103,1077.3967 C 350.77738,1067.0662 208.2256,991.15345 112.20369,866.50673 84.852776,831.0023 57.255865,782.14354 39.99938,738.6731 15.988453,678.18768 3.9002776,618.38992 2.3292342,552.32649 0.76559793,486.57454 9.959612,427.16495 31.389956,364.54281 63.542337,270.58957 124.58936,183.49707 201.46719,121.90279 285.07164,54.91915 379.16703,16.167648 486.79359,4.3962079 529.17487,-0.23916024 585.74406,1.8579241 631.70363,9.7681881 777.4918,34.860306 907.39859,119.93302 988.79479,243.61827 c 16.19011,24.60157 24.01141,38.31934 35.76091,62.72119 29.8596,62.01321 46.7422,125.22708 52.3139,195.88008 1.9064,24.17447 0.85,73.999 -2.0856,98.35947 -15.2183,126.2881 -71.0597,239.33291 -161.32452,326.58398 -86.39485,83.51031 -198.62865,135.66441 -318.8904,148.18571 -23.96662,2.4954 -64.77801,3.4633 -86.34805,2.048 z m -9.93807,-326.95625 85.96149,-128.93229 -28.31041,-19.12775 c -61.60363,-41.62213 -74.80085,-51.67103 -94.13902,-71.68126 -25.38023,-26.26226 -38.41192,-53.56497 -42.81891,-89.71001 -5.76067,-47.24759 4.88353,-84.52859 31.26586,-109.50774 10.53249,-9.9723 17.90493,-14.99665 31.44662,-21.43097 25.66954,-12.19688 46.99545,-15.62341 97.23615,-15.62341 h 36.63618 v 292.47286 292.47286 h 59.92762 59.92762 V 540 200.62726 l -90.86851,0.0202 c -115.59446,0.0257 -136.02043,1.31613 -175.7291,11.10237 -79.436,19.57707 -132.92173,64.31927 -155.93942,130.4474 -20.40153,58.61208 -15.84063,133.60719 11.384,187.18789 19.40015,38.18136 49.45272,71.39164 97.77291,108.04621 l 15.95064,12.09979 -76.63412,113.94375 c -42.14876,62.66907 -76.64812,114.38344 -76.66522,114.92084 -0.0171,0.53739 28.69356,0.97708 63.80151,0.97708 h 63.83264 L 498.28296,750.4405 Z"
   id="path185" /></svg>
